<?xml version="1.0" encoding="utf-8"?>
<!-- Generator: Adobe Illustrator 17.0.0, SVG Export Plug-In . SVG Version: 6.00 Build 0)  -->
<!DOCTYPE svg PUBLIC "-//W3C//DTD SVG 1.1//EN" "http://www.w3.org/Graphics/SVG/1.1/DTD/svg11.dtd">
<svg version="1.1" id="Layer_1" xmlns="http://www.w3.org/2000/svg" xmlns:xlink="http://www.w3.org/1999/xlink" x="0px" y="0px"
	 width="112px" height="37px" viewBox="0 0 112 37" enable-background="new 0 0 112 37" xml:space="preserve">
<g>
	<path fill="#ffffff" d="M77.84,11.086c0.811,0.671,2.503,2.08,2.503,4.761c0,2.608-1.481,3.844-2.962,5.006
		c-0.458,0.458-0.987,0.954-0.987,1.729c0,0.774,0.529,1.198,0.917,1.515l1.271,0.986c1.551,1.304,2.96,2.504,2.96,4.939
		c0,3.314-3.209,6.663-9.273,6.663c-5.113,0-7.58-2.432-7.58-5.043c0-1.27,0.632-3.067,2.714-4.302
		c2.185-1.34,5.148-1.515,6.734-1.623c-0.495-0.634-1.057-1.304-1.057-2.395c0-0.598,0.176-0.952,0.352-1.376
		c-0.389,0.036-0.776,0.07-1.129,0.07c-3.737,0-5.852-2.785-5.852-5.534c0-1.622,0.741-3.422,2.255-4.725
		c2.011-1.658,4.408-1.94,6.314-1.94h7.263l-2.257,1.269H77.84z M75.336,26.743c-0.281-0.037-0.459-0.037-0.81-0.037
		c-0.317,0-2.223,0.072-3.703,0.566c-0.775,0.28-3.032,1.126-3.032,3.631c0,2.502,2.434,4.303,6.207,4.303
		c3.384,0,5.183-1.626,5.183-3.81C79.181,29.596,78.017,28.647,75.336,26.743z M76.36,20.042c0.81-0.812,0.879-1.939,0.879-2.574
		c0-2.539-1.515-6.488-4.441-6.488c-0.918,0-1.904,0.458-2.469,1.164c-0.598,0.741-0.776,1.691-0.776,2.609
		c0,2.362,1.375,6.276,4.409,6.276C74.843,21.03,75.793,20.607,76.36,20.042z"/>
	<path fill="#ffffff" d="M55.642,26.178c-5.596,0-8.59-4.365-8.59-8.309c0-4.612,3.767-8.553,9.121-8.553
		c5.172,0,8.411,4.048,8.411,8.308C64.584,21.776,61.382,26.178,55.642,26.178z M60.042,23.327c0.847-1.127,1.058-2.534,1.058-3.909
		c0-3.099-1.479-9.012-5.844-9.012c-1.161,0-2.323,0.458-3.167,1.199c-1.374,1.23-1.622,2.78-1.622,4.295
		c0,3.483,1.726,9.22,5.986,9.22C57.826,25.12,59.234,24.453,60.042,23.327z"/>
	<path fill="#ffffff" d="M36.562,26.178c-5.597,0-8.59-4.365-8.59-8.309c0-4.612,3.767-8.553,9.118-8.553
		c5.175,0,8.413,4.048,8.413,8.308C45.503,21.776,42.301,26.178,36.562,26.178z M40.961,23.327c0.846-1.127,1.058-2.534,1.058-3.909
		c0-3.099-1.481-9.012-5.845-9.012c-1.161,0-2.324,0.458-3.168,1.199c-1.374,1.23-1.619,2.78-1.619,4.295
		c0,3.483,1.723,9.22,5.986,9.22C38.745,25.12,40.153,24.453,40.961,23.327z"/>
	<path fill="#ffffff" d="M25.282,25.627l-5.061,1.168c-2.054,0.319-3.894,0.6-5.84,0.6c-9.769,0-13.484-7.185-13.484-12.813
		c0-6.866,5.272-13.235,14.298-13.235c1.912,0,3.751,0.282,5.414,0.743c2.655,0.743,3.893,1.663,4.672,2.194l-2.938,2.797
		l-1.238,0.282l0.885-1.416c-1.203-1.167-3.399-3.325-7.574-3.325c-5.592,0-9.804,4.248-9.804,10.442
		c0,6.652,4.814,12.917,12.529,12.917c2.266,0,3.433-0.459,4.496-0.885v-5.697l-5.344,0.283l2.831-1.523h7.503l-0.919,0.885
		c-0.25,0.213-0.284,0.284-0.356,0.565c-0.036,0.319-0.069,1.347-0.069,1.7V25.627z"/>
	<path fill="#ffffff" d="M89.027,24.607c-1.169-0.107-1.413-0.317-1.413-1.7v-0.389V2.876c0.008-0.076,0.012-0.154,0.019-0.228
		c0.143-1.238,0.496-1.45,1.595-2.088h-5.063l-2.656,1.274h2.706v0.016l-0.002-0.013v20.681v1.169c0,0.706-0.14,0.813-0.955,1.875
		h6.264l1.311-0.777C90.231,24.712,89.63,24.678,89.027,24.607z"/>
	<path fill="#ffffff" d="M103.428,24.932c-0.385,0.212-0.772,0.459-1.157,0.633c-1.163,0.527-2.357,0.668-3.413,0.668
		c-1.123,0-2.881-0.072-4.675-1.371c-2.493-1.759-3.583-4.781-3.583-7.417c0-5.448,4.429-8.118,8.049-8.118
		c1.266,0,2.567,0.316,3.622,0.984c1.755,1.158,2.213,2.669,2.457,3.478l-8.258,3.34l-2.707,0.212c0.877,4.464,3.9,7.063,7.24,7.063
		c1.793,0,3.093-0.632,4.288-1.229L103.428,24.932z M100.126,14.457c0.667-0.246,1.018-0.457,1.018-0.949
		c0-1.405-1.58-3.023-3.48-3.023c-1.407,0-4.042,1.09-4.042,4.886c0,0.597,0.071,1.23,0.107,1.864L100.126,14.457z"/>
	<g>
		<path fill="#ffffff" d="M106.821,9.567v2.319h-0.282V9.567h-0.767v-0.24h1.817v0.24H106.821z"/>
		<path fill="#ffffff" d="M109.983,11.886V9.545h-0.013l-0.714,2.341h-0.22l-0.72-2.341h-0.009v2.341h-0.256V9.327h0.438
			l0.653,2.069h0.009l0.641-2.069h0.445v2.559H109.983z"/>
	</g>
</g>
</svg>
